<svg version="1.1" id="Layer_1" xmlns="http://www.w3.org/2000/svg" xmlns:xlink="http://www.w3.org/1999/xlink" x="0px" y="0px"
	 width="100%" viewBox="0 0 540 360" enable-background="new 0 0 540 360" xml:space="preserve">
<path fill="#000000" opacity="1.000000" stroke="none" 
	d="
M340.000000,361.000000 
	C226.697983,361.000000 113.895973,361.000000 1.046980,361.000000 
	C1.046980,241.064651 1.046980,121.129265 1.046980,1.096944 
	C180.885345,1.096944 360.770782,1.096944 540.828125,1.096944 
	C540.828125,120.999802 540.828125,240.999878 540.828125,361.000000 
	C474.129242,361.000000 407.314606,361.000000 340.000000,361.000000 
M295.160461,126.645203 
	C296.527405,125.796371 297.894348,124.947540 299.686707,123.834518 
	C298.254242,122.749855 297.261292,121.805016 296.102997,121.154694 
	C291.344513,118.483063 286.628815,115.701241 281.691437,113.402130 
	C280.114777,112.667961 277.513367,112.601936 276.040436,113.419113 
	C263.889038,120.160606 251.894135,127.184082 239.849182,134.117584 
	C232.886398,138.125595 225.896545,142.087479 218.974609,146.164734 
	C217.780807,146.867935 215.994095,148.016235 215.961243,149.007965 
	C215.709061,156.622894 215.822647,164.249939 215.822647,172.477493 
	C242.213974,157.227432 268.374969,142.110443 295.160461,126.645203 
M305.602936,233.037766 
	C314.864044,227.610062 324.142944,222.212265 333.364227,216.717758 
	C334.553864,216.008926 336.303802,214.828064 336.337616,213.817078 
	C336.589844,206.284821 336.474609,198.740250 336.474609,190.517426 
	C308.537079,206.633438 281.503204,222.228165 253.872803,238.167007 
	C261.461945,242.575333 268.205109,246.492264 275.038849,250.461807 
	C284.734283,244.906387 294.832214,239.120346 305.602936,233.037766 
M269.315033,197.707062 
	C271.930786,195.623383 276.463501,193.809601 276.801971,191.405319 
	C277.807556,184.262650 277.162292,176.887589 277.162292,168.631256 
	C252.570480,182.811035 229.153534,196.313385 205.268585,210.085587 
	C212.778885,214.431808 219.719803,218.448547 226.529373,222.389252 
	C240.858688,214.134308 254.778305,206.115372 269.315033,197.707062 
z"/>
<path fill="#F9FAFA" opacity="1.000000" stroke="none" 
	d="
M294.848206,126.819328 
	C268.374969,142.110443 242.213974,157.227432 215.822647,172.477493 
	C215.822647,164.249939 215.709061,156.622894 215.961243,149.007965 
	C215.994095,148.016235 217.780807,146.867935 218.974609,146.164734 
	C225.896545,142.087479 232.886398,138.125595 239.849182,134.117584 
	C251.894135,127.184082 263.889038,120.160606 276.040436,113.419113 
	C277.513367,112.601936 280.114777,112.667961 281.691437,113.402130 
	C286.628815,115.701241 291.344513,118.483063 296.102997,121.154694 
	C297.261292,121.805016 298.254242,122.749855 299.686707,123.834518 
	C297.894348,124.947540 296.527405,125.796371 294.848206,126.819328 
z"/>
<path fill="#F9FAFA" opacity="1.000000" stroke="none" 
	d="
M305.266541,233.186035 
	C294.832214,239.120346 284.734283,244.906387 275.038849,250.461807 
	C268.205109,246.492264 261.461945,242.575333 253.872803,238.167007 
	C281.503204,222.228165 308.537079,206.633438 336.474609,190.517426 
	C336.474609,198.740250 336.589844,206.284821 336.337616,213.817078 
	C336.303802,214.828064 334.553864,216.008926 333.364227,216.717758 
	C324.142944,222.212265 314.864044,227.610062 305.266541,233.186035 
z"/>
<path fill="#F8F8F9" opacity="1.000000" stroke="none" 
	d="
M269.006470,197.901764 
	C254.778305,206.115372 240.858688,214.134308 226.529373,222.389252 
	C219.719803,218.448547 212.778885,214.431808 205.268585,210.085587 
	C229.153534,196.313385 252.570480,182.811035 277.162292,168.631256 
	C277.162292,176.887589 277.807556,184.262650 276.801971,191.405319 
	C276.463501,193.809601 271.930786,195.623383 269.006470,197.901764 
z"/>
</svg>