        <svg
          version="1.1"
          id="Layer_1"
          xmlns="http://www.w3.org/2000/svg"
          xmlnsXlink="http://www.w3.org/1999/xlink"
          x="0px"
          y="0px"
          width="100%"
          viewBox="0 0 500 500"
          enable-background="new 0 0 500 500"
          xmlSpace="preserve"
        >
          <path
            fill="#fff"
            opacity="1.000000"
            stroke="none"
            d="
M247.489563,226.323792 
	C235.244934,233.367798 223.314529,240.228317 210.662109,247.504059 
	C210.662109,242.465256 210.457687,238.024612 210.789520,233.624420 
	C210.886185,232.342804 212.258850,230.743851 213.479294,230.024673 
	C225.514313,222.932831 237.591461,215.907364 249.803696,209.127945 
	C251.313156,208.289993 253.950516,208.384674 255.593903,209.112030 
	C259.203491,210.709549 262.511200,212.989090 266.477844,215.302658 
	C259.959717,219.085526 253.881775,222.612915 247.489563,226.323792 
z"
          />
          <path
            fill="#fff"
            opacity="1.000000"
            stroke="none"
            d="
M258.938080,294.789185 
	C253.141342,299.684753 247.680954,300.000366 242.043655,295.134399 
	C240.597290,293.885925 238.725723,293.130035 236.493042,291.821777 
	C254.884003,281.209930 272.624298,270.973511 291.073120,260.328278 
	C291.073120,265.518402 291.331604,269.960876 290.920441,274.340485 
	C290.791962,275.708984 289.090088,277.301300 287.710297,278.120850 
	C278.285736,283.718628 268.755096,289.137787 258.938080,294.789185 
z"
          />
          <path
            fill="#fff"
            opacity="1.000000"
            stroke="none"
            d="
M208.973816,275.987762 
	C207.378891,275.082397 206.098755,274.334229 203.954361,273.080963 
	C219.853073,263.896912 235.206375,255.027908 251.217651,245.778824 
	C251.217651,250.925888 251.474213,255.398483 251.064453,259.809174 
	C250.938202,261.168243 249.221512,262.740051 247.843918,263.563263 
	C239.575958,268.503906 231.074387,273.061981 222.905792,278.156647 
	C219.238449,280.443939 216.154922,281.123871 212.676865,278.239868 
	C211.664505,277.400421 210.424347,276.835632 208.973816,275.987762 
z"
          />
        </svg>